<svg width="86" height="86" viewBox="0 0 86 86" fill="none" xmlns="http://www.w3.org/2000/svg">
<g filter="url(#filter0_d_9_81)">
<path d="M60 2H22C10.9543 2 2 10.9543 2 22V60C2 71.0457 10.9543 80 22 80H60C71.0457 80 80 71.0457 80 60V22C80 10.9543 71.0457 2 60 2Z" fill="#EDD5D5"/>
</g>
<path d="M44.8695 44.8695H55.3227C56.6055 44.8695 57.6454 43.8296 57.6459 42.5464V40.2232C57.6459 38.9404 56.606 37.9005 55.3227 37.9H44.8695V27.4468C44.8695 26.1641 43.8296 25.1242 42.5463 25.1237H40.2232C38.9404 25.1237 37.9005 26.1635 37.9 27.4468V37.9H27.4468C26.1641 37.9 25.1242 38.9399 25.1236 40.2232V42.5464C25.1236 43.8291 26.1641 44.8695 27.4468 44.8695H37.9V55.3227C37.9 56.6055 38.9404 57.6459 40.2232 57.6459H42.5464C43.8291 57.6459 44.869 56.606 44.8695 55.3227V44.8695Z" fill="#8B2A42"/>
<defs>
<filter id="filter0_d_9_81" x="0" y="0" width="86" height="86" filterUnits="userSpaceOnUse" color-interpolation-filters="sRGB">
<feFlood flood-opacity="0" result="BackgroundImageFix"/>
<feColorMatrix in="SourceAlpha" type="matrix" values="0 0 0 0 0 0 0 0 0 0 0 0 0 0 0 0 0 0 127 0" result="hardAlpha"/>
<feOffset dx="2" dy="2"/>
<feGaussianBlur stdDeviation="2"/>
<feColorMatrix type="matrix" values="0 0 0 0 0 0 0 0 0 0 0 0 0 0 0 0 0 0 0.1 0"/>
<feBlend mode="normal" in2="BackgroundImageFix" result="effect1_dropShadow_9_81"/>
<feBlend mode="normal" in="SourceGraphic" in2="effect1_dropShadow_9_81" result="shape"/>
</filter>
</defs>
</svg>
