<svg width="86" height="86" viewBox="0 0 86 86" fill="none" xmlns="http://www.w3.org/2000/svg">
<g filter="url(#filter0_d_9_99)">
<path d="M60 2H22C10.9543 2 2 10.9543 2 22V60C2 71.0457 10.9543 80 22 80H60C71.0457 80 80 71.0457 80 60V22C80 10.9543 71.0457 2 60 2Z" fill="#EDD5D5"/>
</g>
<path d="M41 46C43.7614 46 46 43.7614 46 41C46 38.2386 43.7614 36 41 36C38.2386 36 36 38.2386 36 41C36 43.7614 38.2386 46 41 46Z" fill="#8B2A42"/>
<defs>
<filter id="filter0_d_9_99" x="0" y="0" width="86" height="86" filterUnits="userSpaceOnUse" color-interpolation-filters="sRGB">
<feFlood flood-opacity="0" result="BackgroundImageFix"/>
<feColorMatrix in="SourceAlpha" type="matrix" values="0 0 0 0 0 0 0 0 0 0 0 0 0 0 0 0 0 0 127 0" result="hardAlpha"/>
<feOffset dx="2" dy="2"/>
<feGaussianBlur stdDeviation="2"/>
<feColorMatrix type="matrix" values="0 0 0 0 0 0 0 0 0 0 0 0 0 0 0 0 0 0 0.1 0"/>
<feBlend mode="normal" in2="BackgroundImageFix" result="effect1_dropShadow_9_99"/>
<feBlend mode="normal" in="SourceGraphic" in2="effect1_dropShadow_9_99" result="shape"/>
</filter>
</defs>
</svg>
