<svg width="86" height="86" viewBox="0 0 86 86" fill="none" xmlns="http://www.w3.org/2000/svg">
<g filter="url(#filter0_d_9_103)">
<path d="M60 2H22C10.9543 2 2 10.9543 2 22V60C2 71.0457 10.9543 80 22 80H60C71.0457 80 80 71.0457 80 60V22C80 10.9543 71.0457 2 60 2Z" fill="#EDD5D5"/>
</g>
<path d="M34.9663 34.9664C36.7885 33.1442 36.7885 30.1889 34.9663 28.3667C33.1441 26.5444 30.1888 26.5444 28.3666 28.3667C26.5445 30.1889 26.5445 33.1442 28.3666 34.9664C30.1895 36.7894 33.1441 36.7894 34.9663 34.9664ZM53.6328 47.0336C51.8106 45.2114 48.8554 45.2114 47.0332 47.0336C45.211 48.8558 45.211 51.8111 47.0332 53.6333C48.8554 55.4556 51.8106 55.4556 53.6328 53.6333C55.4557 51.8111 55.4557 48.8565 53.6328 47.0336ZM53.4914 30.1582L51.842 28.5088C50.9305 27.5974 49.4533 27.5974 48.5425 28.5088L28.5088 48.543C27.5974 49.4544 27.5974 50.9317 28.5088 51.8425L30.1582 53.4919C31.0696 54.4034 32.5469 54.4034 33.4576 53.4919L53.4914 33.4578C54.4028 32.547 54.4028 31.0697 53.4914 30.1582Z" fill="#8B2A42"/>
<defs>
<filter id="filter0_d_9_103" x="0" y="0" width="86" height="86" filterUnits="userSpaceOnUse" color-interpolation-filters="sRGB">
<feFlood flood-opacity="0" result="BackgroundImageFix"/>
<feColorMatrix in="SourceAlpha" type="matrix" values="0 0 0 0 0 0 0 0 0 0 0 0 0 0 0 0 0 0 127 0" result="hardAlpha"/>
<feOffset dx="2" dy="2"/>
<feGaussianBlur stdDeviation="2"/>
<feColorMatrix type="matrix" values="0 0 0 0 0 0 0 0 0 0 0 0 0 0 0 0 0 0 0.1 0"/>
<feBlend mode="normal" in2="BackgroundImageFix" result="effect1_dropShadow_9_103"/>
<feBlend mode="normal" in="SourceGraphic" in2="effect1_dropShadow_9_103" result="shape"/>
</filter>
</defs>
</svg>
