<svg width="414" height="736" viewBox="0 0 414 736" fill="none" xmlns="http://www.w3.org/2000/svg">
<path opacity="0.5" d="M0 230H414V656C414 693.712 414 712.569 402.284 724.284C390.569 736 371.712 736 334 736H80C42.2876 736 23.4315 736 11.7157 724.284C0 712.569 0 693.712 0 656V230Z" fill="url(#paint0_linear_3_5)"/>
<path d="M374 0H40C17.9086 0 0 17.9086 0 40V696C0 718.091 17.9086 736 40 736H374C396.091 736 414 718.091 414 696V40C414 17.9086 396.091 0 374 0Z" fill="url(#paint1_radial_3_5)"/>
<path opacity="0.3" fill-rule="evenodd" clip-rule="evenodd" d="M0 621.653V468.762L414 229.739V382.63L0 621.653Z" fill="white"/>
<path opacity="0.1" d="M0 80C0 42.2876 0 23.4315 11.7157 11.7157C23.4315 0 42.2876 0 80 0H334C371.712 0 390.569 0 402.284 11.7157C414 23.4315 414 42.2876 414 80V230H0V80Z" fill="black"/>
<path opacity="0.8" d="M37.332 188.891H22.6719V186.061H37.332V188.891ZM37.332 196.186H22.6719V193.374H37.332V196.186Z" fill="white"/>
<path d="M80.5 43L96.1037 83.4225L146.598 83.4225L105.747 108.405L121.351 148.827L80.5 123.845L39.6489 148.827L55.2526 108.405L14.4016 83.4225L64.8963 83.4225L80.5 43Z" fill="#E9E9E2"/>
<defs>
<linearGradient id="paint0_linear_3_5" x1="389" y1="241" x2="23" y2="724" gradientUnits="userSpaceOnUse">
<stop offset="0.0497912" stop-color="#C9D2D6"/>
<stop offset="0.929729" stop-color="#D3DDE1"/>
</linearGradient>
<radialGradient id="paint1_radial_3_5" cx="0" cy="0" r="1" gradientUnits="userSpaceOnUse" gradientTransform="translate(33.5 30.5) rotate(62.2934) scale(796.869 448.239)">
<stop stop-color="#F7F8F9"/>
<stop offset="0.602146" stop-color="#DDDDD3"/>
</radialGradient>
</defs>
</svg>
